<svg xmlns="http://www.w3.org/2000/svg" viewBox="0 15.449999809265137 21.190000534057617 43.75" data-asc="1.17626953125"><g fill="#f0790a"><g fill="#f0790a" transform="translate(0, 0)"><path d="M10.60 59.20Q5.44 59.20 2.72 56.09Q0 52.98 0 47.09L0 26.68Q0 21.17 2.70 18.31Q5.40 15.45 10.60 15.45Q15.80 15.45 18.49 18.31Q21.19 21.17 21.19 26.68L21.19 47.09Q21.19 52.98 18.47 56.09Q15.75 59.20 10.60 59.20M10.67 51.29Q12.62 51.29 12.62 47.51L12.62 26.54Q12.62 23.36 10.72 23.36Q8.57 23.36 8.57 26.61L8.57 47.56Q8.57 49.56 9.06 50.43Q9.55 51.29 10.67 51.29Z"/></g><g fill="#f0790a" transform="translate(0, 66.455078125)"><path d=""/></g></g></svg>